<?xml version="1.0" encoding="utf-8"?>
<!-- Generator: Adobe Illustrator 26.0.1, SVG Export Plug-In . SVG Version: 6.00 Build 0)  -->
<svg version="1.1" id="Layer_1" xmlns="http://www.w3.org/2000/svg" xmlns:xlink="http://www.w3.org/1999/xlink" x="0px" y="0px"
	 viewBox="0 0 529.6 491" style="enable-background:new 0 0 529.6 491;" xml:space="preserve">
<style type="text/css">
	.st0{fill:#1D4ED8;}
	.st1{fill:none;}
	.st2{opacity:0.7;fill:#1D4ED8;enable-background:new    ;}
</style>
<path class="st0" d="M517.6,300c-1-0.7-2.2-1.3-3.3-1.8l-67.5-22.8c-3.4-1.2-6.1-3.7-7.8-6.9l-6.9-15.6v-4.1
	c0-13.7,11.1-24.8,24.8-24.8c0,0,0,0,0,0h23c17.8,0,32.2-14.5,32.1-32.3c0-2.2-0.2-4.4-0.7-6.6c-10.3-48-43.6-88-93.4-89.1
	c-1.2,0-2.3-0.8-2.6-2c0,0-5.9-20.8-6-21.3c-1.9-8.6,0.2-17.5,5.5-24.4l14.9-19.7c0.6-1.4,0-3-1.4-3.7c-0.5-0.2-1-0.3-1.5-0.2
	c-45.2,5.9-85.7,103.6-100.3,147.6l-60.9,183.1c-4.2,12.5-20.7,15.8-28.8,5.4c-3-3.6-3.9-8.5-2.4-12.9l30.9-93.1
	c4.1-12.2,7.2-24.7,9.3-37.5l0,0c0,0,2.8-41.2-3-68c-3.6-16.6-6.2-29.4-11-35c-2.1-2.4-7-10-12-16c-20.1-24.1-40.1-25.9-64-30
	c-0.8-0.1-8.2-0.9-9-1c-34.6-5.8-65.2,20.7-61,56.7c1.6,12.4,7.7,23.7,17.1,31.9c4.6,4,9.9,7,15.6,8.9c2.2,0.8,15.6,4.2,16.8,1.8
	c-3.2,6.2-13.8,14-30.6,11.4c-15.1-2.3-30.2-15.6-37.9-28.6c3.4,7,7.8,13.5,13,19.2c31.9,35.2,81.2,39,105.9,25.2
	c1.2,19.8-22.7,46.6-56.3,53.1c-19.6,3.8-40.4,0.8-60.3-8.4c9.7,7,25.9,15.3,45.2,20.6c-4.4,1.6-10.9,2.2-18,1.8
	c-18.7,26.8-29.8,59.2-29.1,94.5C97.9,443.9,175.8,491,264.2,491h231.6c8.8,0,16-7.2,16-16v0c-0.1-5-1.8-9.9-4.7-14
	c-3-4.1-7.1-7.1-11.9-8.7c-3.5-1.2-8.2-2.4-15.3-4.2h-24.5c-1.5,0-2.8-1.2-2.8-2.7c0-0.7,0.3-1.4,0.7-1.9
	c15.8-17.6,26.6-39.3,26.6-59.4c0-22.5-15.9-44.9-36.5-56.2c-5.6-3.1-9.5-8.5-10.8-14.8c17.6,5.4,44.5,8.6,64.6,7
	c2.3,8.8,11.3,14.1,20.1,11.9c8.8-2.3,14.1-11.3,11.9-20.1C527.6,306.2,523.2,301.7,517.6,300L517.6,300z M439.9,135
	c8.8,0,16,7.2,16,16c0,15.4,3.7,12-12,12c-8.8,0-16-7.2-16-16C427.9,138.2,431,135,439.9,135L439.9,135z"/>
<path class="st1" d="M443.9,163c-8.8,0-16-7.2-16-16c0-8.8,3.2-12,12-12c8.8,0,16,7.2,16,16C455.9,166.4,459.6,163,443.9,163z"/>
<path class="st2" d="M275.9,208.2c0,0.1,0,0.2,0,0.3c-0.3,2.2-0.6,4.1-0.8,5.6c0,0.2,0,0.4-0.1,0.6c0,0.2-0.1,0.4-0.1,0.6
	c-0.1,0.6-0.2,1.1-0.2,1.5c0,0,0,0.1,0,0.1c0,0.1,0,0.2,0,0.3c0,0,0,0.1,0,0.1l0,0c0,0,3-36-3-68c-7.3-38.9-42-74-92.8-79.4
	c-34.9-3.7-68.4,18.1-64.2,54.1c1.6,12.4,7.7,23.7,17.1,31.8c4.6,4,9.9,7,15.6,8.9c2.2,0.8,15.6,4.2,16.8,1.8
	c-3.2,6.2-13.8,14-30.6,11.4c-15.1-2.3-30.2-15.6-38-28.6c3.4,7,7.8,13.5,13,19.2c31.8,35.2,81.2,39,105.9,25.2
	c1.2,19.8-22.7,46.6-56.3,53.1c-19.6,3.8-40.3,0.8-60.3-8.4c9.7,7,25.9,15.3,45.2,20.6c-4.4,1.6-10.9,2.2-18,1.8
	c-8.9-0.5-17.7-2.2-26.1-5.1c-8.7-3.1-17-7-24.8-11.7c-12.9-7.6-24.6-16.9-35-27.7c-1.3-1.3-2.5-2.6-3.8-4
	C15.1,189,3.1,160.9,0.1,132.6C0,131.1,0,129.5,0,128C0,57.3,57.3,0,128,0C204.5,0,290.6,88.9,275.9,208.2z"/>
</svg>
