<svg id="Layer_1" data-name="Layer 1" xmlns="http://www.w3.org/2000/svg" viewBox="0 0 529.57 491"><defs><style>.cls-1{fill:none;}.cls-2{opacity:0.7;}</style></defs><text x="-10.43" y="-33.6"/><text x="-10.43" y="-33.6"/><text x="-10.43" y="-33.6"/><text x="-10.43" y="-33.6"/><path d="M528,333.61a16.37,16.37,0,0,0-3.34-1.8L457.12,309a14.19,14.19,0,0,1-7.75-6.87l-6.94-15.6v-4.13a24.83,24.83,0,0,1,24.84-24.84h23a32.2,32.2,0,0,0,31.43-38.87c-10.3-48-43.64-88-93.35-89.11a2.77,2.77,0,0,1-2.63-2s-5.91-20.76-6-21.26a29.65,29.65,0,0,1,5.51-24.42l14.9-19.74a2.78,2.78,0,0,0-2.91-3.88C392,64.17,351.56,161.87,336.9,205.89L276,389c-4.16,12.49-20.74,15.78-28.83,5.39a13.55,13.55,0,0,1-2.42-12.88l30.94-93.06A242.61,242.61,0,0,0,285,251l0,0s2.75-41.19-3-68c-3.56-16.61-6.24-29.45-11-35-2.1-2.44-7-10-12-16-20.11-24.13-40.12-25.86-64-30-.75-.13-8.23-.87-9-1-34.64-5.79-65.19,20.72-61,56.74a50.22,50.22,0,0,0,17.11,31.85,45.69,45.69,0,0,0,15.6,8.91c2.23.75,15.57,4.24,16.83,1.79-3.19,6.21-13.75,14-30.64,11.39-15.14-2.32-30.22-15.62-37.95-28.62a81.22,81.22,0,0,0,13,19.24c31.85,35.21,81.17,39,105.92,25.17,1.23,19.75-22.67,46.57-56.27,53.1-19.61,3.79-40.35.83-60.33-8.36,9.66,7,25.9,15.33,45.19,20.57-4.39,1.62-10.85,2.16-18,1.77-18.73,26.75-29.85,59.18-29.09,94.51,1.94,88.42,79.85,135.54,168.27,135.54H506.27a16,16,0,0,0,16-16,24.69,24.69,0,0,0-4.72-14,24.21,24.21,0,0,0-11.93-8.72c-3.52-1.17-8.2-2.39-15.34-4.25H465.75a2.76,2.76,0,0,1-2.06-4.61c15.84-17.65,26.59-39.3,26.59-59.39,0-22.55-15.94-44.89-36.53-56.19a21.92,21.92,0,0,1-10.83-14.75c17.56,5.38,44.55,8.65,64.6,7a16.5,16.5,0,1,0,20.44-20Zm-77.66-165a16,16,0,0,1,16,16c0,15.4,3.72,12-12,12a16,16,0,0,1-16-16C438.3,171.76,441.47,168.6,450.3,168.6Z" transform="translate(-10.43 -33.6)"/><path class="cls-1" d="M454.3,196.6a16,16,0,0,1-16-16c0-8.84,3.17-12,12-12a16,16,0,0,1,16,16C466.28,200,470,196.6,454.3,196.6Z" transform="translate(-10.43 -33.6)"/><path class="cls-2" d="M286.35,241.8a2,2,0,0,0-.05.34c-.31,2.22-.57,4.13-.78,5.61q0,.31-.09.6c0,.22-.06.43-.09.62-.1.63-.17,1.12-.23,1.46a.69.69,0,0,0,0,.13c0,.11,0,.21,0,.28a.74.74,0,0,0,0,.12l0,0s3-36-3-68c-7.29-38.88-42-74-92.78-79.36-34.93-3.69-68.41,18.08-64.18,54.1a50.22,50.22,0,0,0,17.11,31.85,45.69,45.69,0,0,0,15.6,8.91c2.23.75,15.57,4.24,16.83,1.79-3.19,6.21-13.75,14-30.64,11.39-15.14-2.32-30.22-15.62-37.95-28.62a81.22,81.22,0,0,0,13,19.24c31.85,35.21,81.17,39,105.92,25.17,1.23,19.75-22.67,46.57-56.27,53.1-19.61,3.79-40.35.83-60.33-8.36,9.66,7,25.9,15.33,45.19,20.57-4.39,1.62-10.85,2.16-18,1.77a97.67,97.67,0,0,1-26.1-5.08,138.66,138.66,0,0,1-24.85-11.72A167,167,0,0,1,49.67,250c-1.29-1.34-2.52-2.63-3.81-4-20.35-23.4-32.33-51.52-35.34-79.82q-.09-2.29-.09-4.62a128,128,0,0,1,128-128C214.9,33.6,301,122.53,286.35,241.8Z" transform="translate(-10.43 -33.6)"/></svg>